# Blender v2.76 (sub 0) OBJ File: 'painting32x16_5f.blend'
# www.blender.org
mtllib painting32x16_5f.mtl
o Cube
v -1.493696 -0.496848 0.494923
v -1.493696 0.496848 0.494923
v -1.493696 -0.496848 0.432817
v -1.493696 0.496848 0.432817
v 0.493696 -0.496848 0.494923
v 0.493696 0.496848 0.494923
v 0.493696 -0.496848 0.432817
v 0.493696 0.496848 0.432817
vt 0.750000 0.937500
vt 0.753906 0.937500
vt 0.753906 1.000000
vt 0.750000 1.000000
vt 0.625000 0.875000
vt 0.500000 0.875000
vt 0.500000 0.812500
vt 0.625000 0.812500
vt 0.875000 0.937500
vt 0.875000 1.000000
vt 0.750000 0.996094
vt 0.875000 0.996094
vn -1.000000 0.000000 0.000000
vn 0.000000 0.000000 -1.000000
vn 1.000000 0.000000 0.000000
vn 0.000000 0.000000 1.000000
vn 0.000000 -1.000000 0.000000
vn 0.000000 1.000000 0.000000
usemtl None
s off
f 2/1/1 4/2/1 3/3/1 1/4/1
f 4/5/2 8/6/2 7/7/2 3/8/2
f 8/1/3 6/2/3 5/3/3 7/4/3
f 6/1/4 2/9/4 1/10/4 5/4/4
f 1/4/5 3/11/5 7/12/5 5/10/5
f 6/4/6 8/11/6 4/12/6 2/10/6
