# Blender v2.76 (sub 0) OBJ File: 'painting32x32_3f.blend'
# www.blender.org
mtllib painting32x32_3f.mtl
o Cube
v -1.496566 -0.496566 0.495013
v -1.496566 1.496566 0.495013
v -1.496566 -0.496566 0.432727
v -1.496566 1.496566 0.432727
v 0.496566 -0.496566 0.495013
v 0.496566 1.496566 0.495013
v 0.496566 -0.496566 0.432727
v 0.496566 1.496566 0.432727
vt 0.753906 1.000000
vt 0.750000 1.000000
vt 0.750000 0.875000
vt 0.753906 0.875000
vt 0.375000 0.500000
vt 0.250000 0.500000
vt 0.250000 0.375000
vt 0.375000 0.375000
vt 0.875000 1.000000
vt 0.875000 0.875000
vn -1.000000 0.000000 0.000000
vn 0.000000 0.000000 -1.000000
vn 1.000000 0.000000 0.000000
vn 0.000000 0.000000 1.000000
vn 0.000000 -1.000000 0.000000
vn 0.000000 1.000000 0.000000
usemtl None
s off
f 2/1/1 4/2/1 3/3/1 1/4/1
f 4/5/2 8/6/2 7/7/2 3/8/2
f 8/1/3 6/2/3 5/3/3 7/4/3
f 6/9/4 2/2/4 1/3/4 5/10/4
f 1/1/5 3/2/5 7/3/5 5/4/5
f 6/1/6 8/2/6 4/3/6 2/4/6
