# Blender v2.76 (sub 0) OBJ File: 'painting16x16_3f.blend'
# www.blender.org
mtllib painting16x16_3f.mtl
o Cube
v -0.497713 -0.497713 0.494973
v -0.497713 0.497713 0.494973
v -0.497713 -0.497713 0.432759
v -0.497713 0.497713 0.432759
v 0.497713 -0.497713 0.494973
v 0.497713 0.497713 0.494973
v 0.497713 -0.497713 0.432759
v 0.497713 0.497713 0.432759
vt 0.750000 0.937500
vt 0.753906 0.937500
vt 0.753906 1.000000
vt 0.750000 1.000000
vt 0.187500 1.000000
vt 0.125000 1.000000
vt 0.125000 0.937500
vt 0.187500 0.937500
vt 0.812500 0.992188
vt 0.750000 0.992188
vt 0.750000 0.929688
vt 0.812500 0.929688
vn -1.000000 0.000000 0.000000
vn 0.000000 0.000000 -1.000000
vn 1.000000 0.000000 0.000000
vn 0.000000 0.000000 1.000000
vn 0.000000 -1.000000 0.000000
vn 0.000000 1.000000 0.000000
usemtl None
s off
f 2/1/1 4/2/1 3/3/1 1/4/1
f 4/5/2 8/6/2 7/7/2 3/8/2
f 8/1/3 6/2/3 5/3/3 7/4/3
f 6/9/4 2/10/4 1/11/4 5/12/4
f 1/1/5 3/2/5 7/3/5 5/4/5
f 6/1/6 8/2/6 4/3/6 2/4/6
