# Blender v2.76 (sub 0) OBJ File: 'painting16x32_1facedir.blend'
# www.blender.org
mtllib amc_painting16x32_1facedir.mtl
o Cube
v -0.501537 -0.503074 0.494866
v -0.501537 1.503074 0.494866
v -0.501537 -0.503074 0.432866
v -0.501537 1.503074 0.432866
v 0.501537 -0.503074 0.494866
v 0.501537 1.503074 0.494866
v 0.501537 -0.503074 0.432866
v 0.501537 1.503074 0.432866
vt 0.750000 0.875000
vt 0.753906 0.875000
vt 0.753906 1.000000
vt 0.750000 1.000000
vt 0.062500 0.750000
vt 0.000000 0.750000
vt 0.000000 0.625000
vt 0.062500 0.625000
vt 0.812500 0.992188
vt 0.750000 0.992188
vt 0.750000 0.867188
vt 0.812500 0.867188
vt 0.750000 0.937500
vt 0.753906 0.937500
vn -1.000000 0.000000 0.000000
vn 0.000000 0.000000 -1.000000
vn 1.000000 0.000000 0.000000
vn 0.000000 0.000000 1.000000
vn 0.000000 -1.000000 0.000000
vn 0.000000 1.000000 0.000000
usemtl None
s off
f 2/1/1 4/2/1 3/3/1 1/4/1
f 4/5/2 8/6/2 7/7/2 3/8/2
f 8/1/3 6/2/3 5/3/3 7/4/3
f 6/9/4 2/10/4 1/11/4 5/12/4
f 1/13/5 3/14/5 7/3/5 5/4/5
f 6/13/6 8/14/6 4/3/6 2/4/6
