# Blender v2.76 (sub 0) OBJ File: 'painting64x48_1facedir.blend'
# www.blender.org
mtllib amc_painting64x48_1facedir.mtl
o Cube
v -2.484224 -1.484932 0.494894
v -2.484224 1.493412 0.494894
v -2.484224 -1.484932 0.432846
v -2.484224 1.493412 0.432846
v 1.486904 -1.484932 0.494894
v 1.486904 1.493412 0.494894
v 1.486904 -1.484932 0.432846
v 1.486904 1.493412 0.432846
vt 0.753906 1.000000
vt 0.750000 1.000000
vt 0.750000 0.812500
vt 0.753906 0.812500
vt 1.000000 0.750000
vt 0.750000 0.750000
vt 0.750000 0.562500
vt 1.000000 0.562500
vt 1.000000 1.000000
vt 1.000000 0.812500
vt 1.000000 0.996094
vt 0.750000 0.996094
vn -1.000000 0.000000 0.000000
vn 0.000000 0.000000 -1.000000
vn 1.000000 0.000000 0.000000
vn 0.000000 0.000000 1.000000
vn 0.000000 -1.000000 0.000000
vn 0.000000 1.000000 0.000000
usemtl None
s off
f 2/1/1 4/2/1 3/3/1 1/4/1
f 4/5/2 8/6/2 7/7/2 3/8/2
f 8/1/3 6/2/3 5/3/3 7/4/3
f 6/9/4 2/2/4 1/3/4 5/10/4
f 1/11/5 3/9/5 7/2/5 5/12/5
f 6/11/6 8/9/6 4/2/6 2/12/6
