# Blender v2.76 (sub 0) OBJ File: 'amc_doublechest.small.facedir1.blend'
# www.blender.org
mtllib amc_doublechest.small.facedir1.mtl
o Cube.002
v 0.562858 -0.058460 -0.503400
v 0.562858 0.193731 -0.503400
v 0.562858 -0.058460 -0.440353
v 0.562858 0.193731 -0.440353
v 0.436763 -0.058460 -0.503400
v 0.436763 0.193731 -0.503400
v 0.436763 -0.058460 -0.440353
v 0.436763 0.193731 -0.440353
v 1.445498 0.066822 -0.440951
v 1.445498 0.382576 -0.440951
v 1.445498 0.066822 0.442027
v 1.445498 0.382576 0.442027
v -0.445877 0.066822 -0.440951
v -0.445877 0.382576 -0.440951
v -0.445877 0.066822 0.442027
v -0.445877 0.382576 0.442027
v 1.445183 -0.498235 -0.440636
v 1.445183 0.132013 -0.440636
v 1.445183 -0.498235 0.441712
v 1.445183 0.132013 0.441712
v -0.445562 -0.498235 -0.440636
v -0.445562 0.132013 -0.440636
v -0.445562 -0.498235 0.441712
v -0.445562 0.132013 0.441712
vt 0.007812 0.921875
vt 0.007812 0.984375
vt 0.000000 0.984375
vt 0.000000 0.921875
vt 0.046875 0.921875
vt 0.046875 0.984375
vt 0.031250 0.984375
vt 0.031250 0.921875
vt 0.023438 0.984375
vt 0.023438 0.921875
vt 0.039062 1.000000
vt 0.023438 1.000000
vt 0.039062 0.984375
vt 0.007812 1.000000
vt 0.109375 0.703125
vt 0.109375 0.781250
vt 0.000000 0.781250
vt 0.000000 0.703125
vt 0.687500 0.703125
vt 0.687500 0.781250
vt 0.453125 0.781250
vt 0.453125 0.703125
vt 0.343750 0.781250
vt 0.343750 0.703125
vt 0.578125 1.000000
vt 0.343750 1.000000
vt 0.578125 0.781250
vt 0.109375 1.000000
vt 0.109375 0.328125
vt 0.109375 0.484375
vt -0.000000 0.484375
vt -0.000000 0.328125
vt 0.687500 0.328125
vt 0.687500 0.484375
vt 0.453125 0.484375
vt 0.453125 0.328125
vt 0.343750 0.484375
vt 0.343750 0.328125
vt 0.578125 0.703125
vt 0.578125 0.484375
vn 1.000000 0.000000 0.000000
vn 0.000000 0.000000 1.000000
vn -1.000000 0.000000 0.000000
vn 0.000000 0.000000 -1.000000
vn 0.000000 -1.000000 0.000000
vn 0.000000 1.000000 0.000000
usemtl None
s off
f 1/1/1 2/2/1 4/3/1 3/4/1
f 3/5/2 4/6/2 8/7/2 7/8/2
f 7/8/3 8/7/3 6/9/3 5/10/3
f 5/10/4 6/9/4 2/2/4 1/1/4
f 3/11/5 7/12/5 5/9/5 1/13/5
f 8/12/6 4/14/6 2/2/6 6/9/6
f 9/15/1 10/16/1 12/17/1 11/18/1
f 11/19/2 12/20/2 16/21/2 15/22/2
f 15/22/3 16/21/3 14/23/3 13/24/3
f 13/24/4 14/23/4 10/16/4 9/15/4
f 11/25/5 15/26/5 13/23/5 9/27/5
f 16/26/6 12/28/6 10/16/6 14/23/6
f 17/29/1 18/30/1 20/31/1 19/32/1
f 19/33/2 20/34/2 24/35/2 23/36/2
f 23/36/3 24/35/3 22/37/3 21/38/3
f 21/38/4 22/37/4 18/30/4 17/29/4
f 19/39/5 23/24/5 21/37/5 17/40/5
f 24/24/6 20/15/6 18/30/6 22/37/6
